<?xml version="1.0" encoding="UTF-8"?>
<svg id="Layer_1" xmlns="http://www.w3.org/2000/svg" version="1.1" viewBox="0 0 600 600">
  <!-- Generator: Adobe Illustrator 30.0.0, SVG Export Plug-In . SVG Version: 2.1.1 Build 123)  -->
  <defs>
    <style>
      .st0 {
        fill: #fff;
      }

      .st1 {
        fill: #eb008b;
      }
    </style>
  </defs>
  <path class="st1" d="M405.89,466.15c-43.99,0-84.09-36.59-84.09-86.02,0-56.44,45.15-88.36,84.09-88.36,36.59,0,84.07,29.98,84.07,86.02s-42.83,88.36-84.07,88.36M185.86,466.15c-43.98,0-84.07-36.59-84.07-86.02,0-56.44,45.15-88.36,84.07-88.36,36.59,0,84.07,29.98,84.07,86.02s-42.81,88.36-84.07,88.36M405.49,267.22c-51.17,0-101.21,38.35-109.58,96.22-7.68-51.98-53.02-96.22-110.44-96.22s-110.94,45.94-110.94,113.27c0,57.61,48.65,110.16,110.94,110.16,57.74,0,102.27-43.96,110.31-95.26,7.5,51.45,52.88,95.26,109.72,95.26,63.84,0,111.72-53.73,111.72-111.72s-48.66-111.72-111.72-111.72"/>
  <path class="st0" d="M564.49,121.4c0,5.32-3.46,9.79-8.25,11.38v289.04c0,8.71-7.06,15.78-15.78,15.78s-15.78-7.06-15.78-15.78v-73.55c0-8.71,7.06-15.78,15.78-15.78,1.44,0,2.81.25,4.14.6-17.93-121.01-122.23-198.63-248.23-198.63-.16,0-.32,0-.49.01-.16,0-.32-.01-.49-.01-126,0-230.3,77.62-248.23,198.63,1.33-.35,2.7-.6,4.13-.6,8.74,0,15.8,7.07,15.8,15.78v73.55c0,8.71-7.06,15.78-15.8,15.78s-15.78-7.06-15.78-15.78v-73.64c.03-.4.1-.8.13-1.19.04-.66.07-1.34.21-1.97,12.72-132.21,123.98-235.66,259.55-235.66.16,0,.32,0,.49.01.16,0,.32-.01.49-.01,121.26,0,223.04,82.81,252.27,194.93v-171.48c-4.77-1.61-8.25-6.07-8.25-11.39,0-6.66,5.39-12.05,12.05-12.05s12.07,5.39,12.07,12.05h-.01Z"/>
</svg>